<?xml version="1.0" encoding="utf-8"?>
<!-- Generator: Adobe Illustrator 27.8.0, SVG Export Plug-In . SVG Version: 6.00 Build 0)  -->
<svg version="1.1" id="Layer_1" xmlns="http://www.w3.org/2000/svg" xmlns:xlink="http://www.w3.org/1999/xlink" x="0px" y="0px"
	 viewBox="0 0 960 540" style="enable-background:new 0 0 960 540;" xml:space="preserve">
<style type="text/css">
	.st0{clip-path:url(#SVGID_00000072993557073724705350000000707349219401524667_);fill:#FF5722;}
	
		.st1{clip-path:url(#SVGID_00000072993557073724705350000000707349219401524667_);fill-rule:evenodd;clip-rule:evenodd;fill-opacity:0;}
	.st2{clip-path:url(#SVGID_00000072993557073724705350000000707349219401524667_);}
</style>
<g>
	<defs>
		<polyline id="SVGID_1_" points="0,540 0,0 960,0 960,540 		"/>
	</defs>
	<clipPath id="SVGID_00000092422683854125557170000016789478207726929342_">
		<use xlink:href="#SVGID_1_"  style="overflow:visible;"/>
	</clipPath>
	<path style="clip-path:url(#SVGID_00000092422683854125557170000016789478207726929342_);fill:#FF5722;" d="M39.6,78.4
		c-0.5,0-0.8-0.1-1.1-0.4c-0.3-0.3-0.4-0.7-0.4-1.1V48.7c0-0.4,0.1-0.8,0.4-1.1c0.3-0.3,0.7-0.4,1.1-0.4h7.5c1.9,0,3.7,0.4,5.2,1.2
		c1.5,0.8,2.7,1.9,3.6,3.4c0.9,1.4,1.3,3.1,1.3,5c0,1.8-0.4,3.4-1.3,4.8c-0.9,1.4-2.1,2.5-3.6,3.3c-1.5,0.8-3.2,1.2-5.2,1.2h-5.9
		v10.7c0,0.5-0.2,0.8-0.5,1.1C40.5,78.3,40.1,78.4,39.6,78.4z M56.4,78.4c-0.3,0-0.6-0.1-0.8-0.2c-0.2-0.1-0.4-0.3-0.5-0.6
		l-7.7-12.2l3.1-0.8L57.6,76c0.4,0.6,0.5,1.2,0.2,1.7C57.6,78.2,57.1,78.4,56.4,78.4z M41.2,63.2h5.9c1.4,0,2.6-0.3,3.6-0.8
		c1.1-0.6,1.9-1.3,2.5-2.3c0.6-1,0.9-2.1,0.9-3.3c0-1.3-0.3-2.5-0.9-3.5c-0.6-1-1.4-1.8-2.5-2.3c-1.1-0.6-2.3-0.8-3.6-0.8h-5.9V63.2
		z M78.1,77.2c-1.7,1-3.6,1.4-5.7,1.4c-2.1,0-4-0.5-5.7-1.4c-1.7-1-3-2.3-4-4c-1-1.7-1.4-3.6-1.4-5.7c0-2.2,0.5-4.1,1.4-5.8
		c1-1.7,2.3-3,4-4c1.7-1,3.6-1.4,5.7-1.4c2.1,0,4,0.5,5.7,1.4c1.7,1,3,2.3,3.9,4c1,1.7,1.5,3.6,1.5,5.8 M72.4,75.8
		c1.5,0,2.9-0.4,4.2-1.1c1.2-0.7,2.2-1.7,2.9-3c0.7-1.2,1-2.7,1-4.3c0-1.6-0.3-3-1-4.3c-0.7-1.3-1.6-2.3-2.9-3
		c-1.2-0.7-2.6-1.1-4.2-1.1c-1.6,0-2.9,0.4-4.2,1.1c-1.2,0.7-2.2,1.7-2.9,3c-0.7,1.3-1.1,2.7-1.1,4.3c0,1.6,0.4,3,1.1,4.3
		c0.7,1.2,1.7,2.2,2.9,3C69.4,75.5,70.8,75.8,72.4,75.8z M91.6,74.7c-0.6-1.2-1-2.5-1-4V51.1c0-0.4,0.1-0.8,0.4-1.1
		c0.3-0.3,0.6-0.5,1.1-0.5c0.5,0,0.8,0.2,1.1,0.5c0.3,0.3,0.4,0.7,0.4,1.1v19.6c0,1.4,0.4,2.5,1.2,3.3c0.8,0.9,1.8,1.3,3.1,1.3h1.1
		c0.4,0,0.8,0.1,1,0.4c0.3,0.3,0.4,0.7,0.4,1.1c0,0.4-0.2,0.8-0.5,1.1c-0.3,0.3-0.7,0.4-1.2,0.4H98 M88.1,60c-0.4,0-0.7-0.1-1-0.4
		c-0.3-0.2-0.4-0.6-0.4-0.9c0-0.4,0.1-0.7,0.4-1c0.3-0.3,0.6-0.4,1-0.4h10.2c0.4,0,0.7,0.1,1,0.4c0.3,0.2,0.4,0.6,0.4,1
		c0,0.4-0.1,0.7-0.4,0.9c-0.3,0.2-0.6,0.4-1,0.4H88.1z M115.2,78.6c-2.1,0-3.9-0.5-5.5-1.5c-1.6-1-2.9-2.3-3.9-4
		c-0.9-1.7-1.4-3.6-1.4-5.7c0-2.1,0.5-4,1.5-5.7c1-1.7,2.3-3,4-4c1.7-1,3.6-1.5,5.7-1.5c2.1,0,4,0.5,5.7,1.5c1.7,1,3,2.3,4,4
		c1,1.7,1.5,3.6,1.5,5.7l-1.2,1c0,1.9-0.4,3.6-1.3,5.2c-0.9,1.5-2.1,2.7-3.6,3.6C118.9,78.2,117.1,78.6,115.2,78.6z M115.5,59.1
		c-1.5,0-2.9,0.4-4.1,1.1c-1.2,0.7-2.2,1.7-2.9,3c-0.7,1.3-1.1,2.7-1.1,4.3c0,1.6,0.4,3,1.1,4.3c0.7,1.3,1.7,2.3,2.9,3
		c1.2,0.7,2.6,1.1,4.1,1.1c1.5,0,2.9-0.4,4.1-1.1c1.2-0.7,2.2-1.7,2.9-3c0.7-1.3,1.1-2.7,1.1-4.3c0-1.6-0.4-3-1.1-4.3 M125.1,78.4
		c-0.5,0-0.8-0.1-1.1-0.4c-0.3-0.3-0.4-0.6-0.4-1.1V70l0.8-3.2l2.4,0.6v9.4c0,0.4-0.2,0.8-0.5,1.1C125.9,78.3,125.5,78.4,125.1,78.4
		z M141.2,78.4c-1.4,0-2.7-0.3-3.8-1c-1.1-0.7-2-1.6-2.6-2.7c-0.6-1.2-1-2.5-1-4V51.1c0-0.4,0.1-0.8,0.4-1.1
		c0.3-0.3,0.6-0.5,1.1-0.5c0.5,0,0.8,0.2,1.1,0.5c0.3,0.3,0.4,0.7,0.4,1.1v19.6c0,1.4,0.4,2.5,1.2,3.3c0.8,0.9,1.8,1.3,3.1,1.3h1.1
		c0.4,0,0.8,0.1,1,0.4c0.3,0.3,0.4,0.7,0.4,1.1c0,0.4-0.2,0.8-0.5,1.1s-0.7,0.4-1.2,0.4H141.2z M131.2,60c-0.4,0-0.7-0.1-1-0.4
		c-0.3-0.2-0.4-0.6-0.4-0.9c0-0.4,0.1-0.7,0.4-1c0.3-0.3,0.6-0.4,1-0.4h10.2c0.4,0,0.7,0.1,1,0.4c0.3,0.2,0.4,0.6,0.4,1
		c0,0.4-0.1,0.7-0.4,0.9c-0.3,0.2-0.6,0.4-1,0.4H131.2z M158.6,78.6c-2.2,0-4.1-0.5-5.7-1.4c-1.7-0.9-3-2.3-3.9-3.9
		c-0.9-1.7-1.4-3.6-1.4-5.8c0-2.2,0.4-4.1,1.3-5.8c0.9-1.7,2.1-3,3.7-3.9c1.6-1,3.4-1.4,5.4-1.4c2,0,3.8,0.5,5.3,1.4
		c1.5,0.9,2.7,2.2,3.5,3.8s1.2,3.5,1.2,5.6c0,0.4-0.1,0.8-0.4,1c-0.3,0.2-0.6,0.4-1,0.4h-17v-2.6H167l-1.7,1.2
		c0-1.6-0.3-2.9-0.8-4.2c-0.6-1.2-1.4-2.2-2.5-2.9c-1.1-0.7-2.4-1-3.9-1c-1.5,0-2.9,0.4-4,1.1s-2,1.7-2.7,3
		c-0.6,1.3-0.9,2.7-0.9,4.3s0.4,3.1,1.1,4.3c0.7,1.2,1.7,2.2,2.9,3s2.6,1.1,4.2,1.1c1,0,1.9-0.2,2.9-0.5c1-0.3,1.8-0.8,2.4-1.2
		c0.3-0.2,0.6-0.4,1-0.4c0.4,0,0.7,0.1,1,0.3c0.3,0.3,0.5,0.7,0.5,1c0,0.4-0.1,0.7-0.5,1c-0.9,0.8-2,1.4-3.4,1.9
		C161.2,78.4,159.9,78.6,158.6,78.6z M194.6,78.6c-2.1,0-3.9-0.5-5.5-1.5c-1.6-1-2.9-2.3-3.9-4c-0.9-1.7-1.4-3.6-1.4-5.7
		c0-2.1,0.5-4,1.5-5.7c1-1.7,2.3-3,4-4c1.7-1,3.6-1.5,5.7-1.5c2.1,0,4,0.5,5.7,1.5c1.7,1,3,2.3,4,4c1,1.7,1.5,3.6,1.5,5.7l-1.2,1
		c0,1.9-0.4,3.6-1.3,5.2c-0.9,1.5-2.1,2.7-3.6,3.6C198.3,78.2,196.6,78.6,194.6,78.6z M195,75.8c1.5,0,2.9-0.4,4.1-1.1
		c1.2-0.7,2.2-1.7,2.9-3c0.7-1.3,1.1-2.7,1.1-4.3c0-1.6-0.4-3-1.1-4.3c-0.7-1.3-1.7-2.3-2.9-3c-1.2-0.7-2.6-1.1-4.1-1.1
		c-1.5,0-2.9,0.4-4.1,1.1c-1.2,0.7-2.2,1.7-2.9,3c-0.7,1.3-1.1,2.7-1.1,4.3c0,1.6,0.4,3,1.1,4.3c0.7,1.3,1.7,2.3,2.9,3
		C192.1,75.5,193.4,75.8,195,75.8z M204.5,78.4c-0.5,0-0.8-0.1-1.1-0.4c-0.3-0.3-0.4-0.6-0.4-1.1V70l0.8-3.2l2.4,0.6v9.4
		c0,0.4-0.2,0.8-0.5,1.1C205.3,78.3,205,78.4,204.5,78.4z M216.8,78.4c-1.1,0-2-0.3-2.9-0.9c-0.8-0.6-1.5-1.4-2-2.4
		c-0.5-1-0.7-2.2-0.7-3.6V48.7c0-0.5,0.1-0.8,0.4-1.1c0.3-0.3,0.6-0.4,1.1-0.4c0.5,0,0.8,0.1,1.1,0.4c0.3,0.3,0.4,0.6,0.4,1.1v22.8
		c0,1.1,0.2,2.1,0.7,2.8c0.5,0.7,1.1,1.1,1.8,1.1h1c0.4,0,0.7,0.1,1,0.4c0.2,0.3,0.4,0.7,0.4,1.1c0,0.4-0.2,0.8-0.5,1.1
		c-0.3,0.3-0.8,0.4-1.3,0.4H216.8z M231.8,78.6c-2.1,0-4-0.5-5.6-1.4c-1.6-0.9-2.9-2.3-3.8-3.9c-0.9-1.7-1.4-3.6-1.4-5.8
		c0-2.2,0.5-4.1,1.4-5.8c1-1.7,2.3-3,4-3.9c1.7-0.9,3.6-1.4,5.7-1.4c2.2,0,4.1,0.5,5.7,1.4c1.7,0.9,3,2.3,3.9,3.9
		c0.9,1.7,1.4,3.6,1.5,5.8l-1.8,1c0,2-0.4,3.7-1.2,5.2c-0.8,1.5-2,2.7-3.4,3.6C235.3,78.2,233.7,78.6,231.8,78.6z M232.2,87
		c-2.1,0-4-0.4-5.6-1.2c-1.6-0.8-2.9-1.9-4-3.2c-0.3-0.3-0.4-0.7-0.4-1c0-0.4,0.2-0.7,0.6-0.9c0.4-0.2,0.7-0.3,1.2-0.2
		c0.4,0.1,0.8,0.3,1,0.6c0.8,1,1.8,1.7,3,2.3c1.2,0.6,2.6,0.9,4.2,0.9c1.5,0,2.8-0.4,4-1.1c1.2-0.7,2.2-1.7,2.9-3
		c0.7-1.3,1.1-2.8,1.1-4.6v-6.1l1.2-2.3l1.9,0.4v8.2c0,2.2-0.5,4.1-1.5,5.8c-1,1.7-2.3,3.1-3.9,4.1C236.2,86.5,234.3,87,232.2,87z
		 M232.1,75.8c1.6,0,3-0.4,4.2-1.1c1.2-0.7,2.2-1.7,2.9-2.9c0.7-1.3,1-2.7,1-4.3s-0.3-3.1-1-4.3c-0.7-1.3-1.6-2.3-2.9-3
		c-1.2-0.7-2.6-1.1-4.2-1.1c-1.6,0-3,0.4-4.2,1.1c-1.2,0.7-2.2,1.7-2.9,3c-0.7,1.3-1,2.7-1,4.3s0.3,3.1,1,4.3
		c0.7,1.2,1.7,2.2,2.9,2.9C229.2,75.5,230.6,75.8,232.1,75.8z M259.2,78.6c-2.1,0-4-0.5-5.7-1.4c-1.7-1-3-2.3-4-4
		c-1-1.7-1.4-3.6-1.4-5.7c0-2.2,0.5-4.1,1.4-5.8c1-1.7,2.3-3,4-4c1.7-1,3.6-1.4,5.7-1.4c2.1,0,4,0.5,5.7,1.4c1.7,1,3,2.3,3.9,4
		c1,1.7,1.5,3.6,1.5,5.8c0,2.1-0.5,4-1.5,5.7c-1,1.7-2.3,3-4,4C263.2,78.1,261.3,78.6,259.2,78.6z M259.2,75.8
		c1.5,0,2.9-0.4,4.2-1.1c1.2-0.7,2.2-1.7,2.9-3c0.7-1.2,1-2.7,1-4.3c0-1.6-0.3-3-1-4.3c-0.7-1.3-1.6-2.3-2.9-3
		c-1.2-0.7-2.6-1.1-4.2-1.1c-1.6,0-2.9,0.4-4.2,1.1c-1.2,0.7-2.2,1.7-2.9,3c-0.7,1.3-1.1,2.7-1.1,4.3c0,1.6,0.4,3,1.1,4.3
		c0.7,1.2,1.7,2.2,2.9,3C256.3,75.5,257.7,75.8,259.2,75.8z M277.6,64.9c0.1-1.6,0.5-3.1,1.3-4.4c0.8-1.3,1.8-2.3,3.1-3.1
		c1.3-0.8,2.7-1.1,4.2-1.1c1.2,0,2.2,0.2,2.8,0.5c0.7,0.3,0.9,0.8,0.8,1.5c-0.1,0.4-0.3,0.7-0.5,0.8c-0.2,0.1-0.6,0.2-0.9,0.2
		c-0.4,0-0.8-0.1-1.2-0.1c-1.5-0.1-2.8,0-4,0.5c-1.2,0.4-2.1,1.1-2.8,2c-0.7,0.9-1,2-1,3.2H277.6z M277.8,78.4
		c-0.5,0-0.9-0.1-1.1-0.4c-0.3-0.3-0.4-0.6-0.4-1.1V58c0-0.5,0.1-0.8,0.4-1.1c0.3-0.3,0.6-0.4,1.1-0.4s0.8,0.1,1.1,0.4
		c0.3,0.3,0.4,0.6,0.4,1.1v18.8c0,0.5-0.1,0.9-0.4,1.1C278.7,78.3,278.3,78.4,277.8,78.4z M296.8,78.4c-0.5,0-0.9-0.1-1.1-0.4
		s-0.4-0.7-0.4-1.1V58.1c0-0.5,0.1-0.9,0.4-1.1c0.3-0.3,0.7-0.4,1.1-0.4c0.5,0,0.8,0.1,1.1,0.4c0.3,0.3,0.4,0.7,0.4,1.1v18.8
		c0,0.5-0.1,0.9-0.4,1.1C297.7,78.3,297.3,78.4,296.8,78.4z M296.8,52.4c-0.6,0-1.1-0.2-1.5-0.6c-0.4-0.4-0.6-0.9-0.6-1.6
		c0-0.7,0.2-1.2,0.7-1.6c0.4-0.4,0.9-0.6,1.5-0.6c0.6,0,1.1,0.2,1.5,0.6c0.4,0.4,0.7,0.9,0.7,1.6c0,0.6-0.2,1.1-0.6,1.6
		C297.9,52.2,297.4,52.4,296.8,52.4z M314.8,78.4c-1.4,0-2.7-0.3-3.8-1c-1.1-0.7-2-1.6-2.6-2.7c-0.6-1.2-1-2.5-1-4V51.1
		c0-0.4,0.1-0.8,0.4-1.1c0.3-0.3,0.6-0.5,1.1-0.5c0.5,0,0.8,0.2,1.1,0.5c0.3,0.3,0.4,0.7,0.4,1.1v19.6c0,1.4,0.4,2.5,1.2,3.3
		c0.8,0.9,1.8,1.3,3.1,1.3h1.1c0.4,0,0.8,0.1,1,0.4c0.3,0.3,0.4,0.7,0.4,1.1c0,0.4-0.2,0.8-0.5,1.1s-0.7,0.4-1.2,0.4H314.8z
		 M304.8,60c-0.4,0-0.7-0.1-1-0.4c-0.3-0.2-0.4-0.6-0.4-0.9c0-0.4,0.1-0.7,0.4-1c0.3-0.3,0.6-0.4,1-0.4H315c0.4,0,0.7,0.1,1,0.4
		c0.3,0.2,0.4,0.6,0.4,1c0,0.4-0.1,0.7-0.4,0.9c-0.3,0.2-0.6,0.4-1,0.4H304.8z M323.8,69.5c-0.5,0-0.9-0.1-1.1-0.4
		c-0.3-0.3-0.4-0.7-0.4-1.1V48.7c0-0.5,0.1-0.9,0.4-1.1c0.3-0.3,0.7-0.4,1.1-0.4c0.5,0,0.8,0.1,1.1,0.4c0.3,0.3,0.4,0.6,0.4,1.1
		v19.2c0,0.5-0.1,0.8-0.4,1.1C324.7,69.3,324.3,69.5,323.8,69.5z M341,78.4c-0.4,0-0.8-0.1-1.1-0.4c-0.3-0.3-0.4-0.7-0.4-1.1V66.5
		c0-1.7-0.3-3-0.9-4.1s-1.5-1.9-2.6-2.4c-1.1-0.5-2.3-0.8-3.7-0.8c-1.3,0-2.5,0.3-3.5,0.8c-1.1,0.5-1.9,1.2-2.5,2.1
		c-0.6,0.9-0.9,1.9-0.9,3h-2.2c0.1-1.7,0.5-3.2,1.4-4.5c0.9-1.3,2-2.4,3.4-3.1c1.4-0.8,3-1.1,4.7-1.1c1.9,0,3.6,0.4,5.1,1.2
		c1.5,0.8,2.7,1.9,3.5,3.5c0.9,1.5,1.3,3.4,1.3,5.6v10.4c0,0.4-0.1,0.8-0.4,1.1C341.8,78.3,341.5,78.4,341,78.4z M323.8,78.4
		c-0.5,0-0.9-0.1-1.1-0.4s-0.4-0.6-0.4-1.1V58.1c0-0.5,0.1-0.9,0.4-1.1c0.3-0.3,0.7-0.4,1.1-0.4c0.5,0,0.8,0.1,1.1,0.4
		c0.3,0.3,0.4,0.7,0.4,1.1v18.8c0,0.4-0.1,0.8-0.4,1.1S324.3,78.4,323.8,78.4z M378.9,78.4c-0.4,0-0.8-0.1-1.1-0.4
		c-0.3-0.3-0.4-0.6-0.4-1.1V65.4c0-1.9-0.5-3.4-1.5-4.5c-1-1.1-2.2-1.7-3.8-1.7c-1.6,0-3,0.6-4,1.7c-1.1,1.1-1.6,2.6-1.5,4.4h-2.8
		c0-1.8,0.4-3.3,1.2-4.7c0.8-1.4,1.8-2.4,3.1-3.2c1.3-0.8,2.8-1.1,4.5-1.1c1.6,0,3,0.4,4.2,1.1c1.2,0.8,2.2,1.8,2.8,3.2
		c0.7,1.4,1,2.9,1,4.8v11.5c0,0.4-0.1,0.8-0.4,1.1S379.4,78.4,378.9,78.4z M350.9,78.4c-0.5,0-0.9-0.1-1.1-0.4s-0.4-0.6-0.4-1.1
		V58.1c0-0.5,0.1-0.8,0.4-1.1c0.3-0.3,0.7-0.4,1.1-0.4c0.5,0,0.8,0.1,1.1,0.4c0.3,0.3,0.4,0.7,0.4,1.1v18.8c0,0.4-0.1,0.8-0.4,1.1
		S351.4,78.4,350.9,78.4z M365,78.4c-0.5,0-0.8-0.1-1.1-0.4s-0.4-0.6-0.4-1.1V65.4c0-1.9-0.5-3.4-1.5-4.5c-1-1.1-2.2-1.7-3.8-1.7
		c-1.7,0-3,0.5-4.1,1.6c-1.1,1.1-1.6,2.5-1.6,4.2h-2.2c0.1-1.7,0.4-3.2,1.1-4.5c0.7-1.3,1.7-2.4,2.9-3.1c1.2-0.8,2.6-1.1,4.2-1.1
		c1.6,0,3,0.4,4.2,1.1c1.2,0.8,2.2,1.8,2.8,3.2c0.7,1.4,1,2.9,1,4.8v11.5c0,0.4-0.1,0.8-0.4,1.1S365.4,78.4,365,78.4z"/>
	
		<path style="clip-path:url(#SVGID_00000092422683854125557170000016789478207726929342_);fill-rule:evenodd;clip-rule:evenodd;fill-opacity:0;" d="
		M264,109.6h432v416.9H264V109.6z"/>
	<g style="clip-path:url(#SVGID_00000092422683854125557170000016789478207726929342_);">
		<defs>
			<rect id="SVGID_00000027600937020571797940000010809108447182096786_" x="264" y="109.6" width="432" height="416.9"/>
		</defs>
		<clipPath id="SVGID_00000006703120184644498150000015867400472450995130_">
			<use xlink:href="#SVGID_00000027600937020571797940000010809108447182096786_"  style="overflow:visible;"/>
		</clipPath>
		<g style="clip-path:url(#SVGID_00000006703120184644498150000015867400472450995130_);enable-background:new    ;">
			
				<image style="overflow:visible;" width="2400" height="2316" xlink:href="B3EE6190.png"  transform="matrix(0.18 0 0 0.18 287.0052 155.5656)">
			</image>
		</g>
	</g>
</g>
</svg>
